<?xml version="1.0" encoding="UTF-8" standalone="no"?>
<svg
   width="100%"
   height="100%"
   viewBox="0 0 1024 1024"
   version="1.1"
   xml:space="preserve"
   style="fill-rule:evenodd;clip-rule:evenodd;stroke-linecap:round;stroke-linejoin:round;stroke-miterlimit:1.5;"
   id="svg4"
   sodipodi:docname="lyntrldarkmode.svg"
   inkscape:version="1.3.2 (091e20e, 2023-11-25, custom)"
   inkscape:export-filename="lyntrldarkmode.png"
   inkscape:export-xdpi="96"
   inkscape:export-ydpi="96"
   xmlns:inkscape="http://www.inkscape.org/namespaces/inkscape"
   xmlns:sodipodi="http://sodipodi.sourceforge.net/DTD/sodipodi-0.dtd"
   xmlns:xlink="http://www.w3.org/1999/xlink"
   xmlns="http://www.w3.org/2000/svg"
   xmlns:svg="http://www.w3.org/2000/svg"><defs
   id="defs4"><linearGradient
     id="linearGradient30"
     inkscape:collect="always"><stop
       style="stop-color:#252322;stop-opacity:1;"
       offset="0"
       id="stop30" /><stop
       style="stop-color:#2e2c2b;stop-opacity:1;"
       offset="1"
       id="stop31" /></linearGradient><linearGradient
     id="linearGradient28"
     inkscape:collect="always"><stop
       style="stop-color:#2e2c2b;stop-opacity:1;"
       offset="0"
       id="stop28" /><stop
       style="stop-color:#252322;stop-opacity:1;"
       offset="0.20171674"
       id="stop29" /></linearGradient><linearGradient
     id="linearGradient24"
     inkscape:collect="always"><stop
       style="stop-color:#53504f;stop-opacity:1;"
       offset="0"
       id="stop24" /><stop
       style="stop-color:#2e2c2b;stop-opacity:0;"
       offset="1"
       id="stop25" /></linearGradient><filter
     id="mask-powermask-path-effect6_inverse"
     inkscape:label="filtermask-powermask-path-effect6"
     style="color-interpolation-filters:sRGB"
     height="100"
     width="100"
     x="-50"
     y="-50"><feColorMatrix
       id="mask-powermask-path-effect6_primitive1"
       values="1"
       type="saturate"
       result="fbSourceGraphic" /><feColorMatrix
       id="mask-powermask-path-effect6_primitive2"
       values="-1 0 0 0 1 0 -1 0 0 1 0 0 -1 0 1 0 0 0 1 0 "
       in="fbSourceGraphic" /></filter><clipPath
     clipPathUnits="userSpaceOnUse"
     id="clipPath7"><path
       d="M 80.857,136.863 41.954,75.33 c 84.128,-19.568 238.985,-20.538 327.329,26.938 164.767,95.877 234.718,236.534 282.853,411.916 12.959,47.216 15.084,121.134 8.878,165.9 -15.353,110.738 -48.398,134.503 -96.337,211.629 -138.619,21.507 -382.885,72.583 -494.144,50.311 141.46,-125.841 251.924,-309.555 213.312,-411.376 0,0 -34.096,-100.668 -202.988,-393.785 z"
       style="clip-rule:evenodd;fill:#eae7db;fill-rule:evenodd;stroke-linecap:round;stroke-linejoin:round;stroke-miterlimit:1.5"
       id="path8" /></clipPath><marker
     markerWidth="89.31997681"
     markerHeight="53.64053345"
     refX="44.659988"
     refY="26.820267"
     orient="auto"
     id="marker12"
     viewBox="0 0 89.31997681 53.64053345"
     preserveAspectRatio="xMidYMid"><rect
       style="fill:#f1f0e8;fill-opacity:1;stroke:#4e1c00;stroke-width:2.5;stroke-linejoin:round;stroke-dasharray:none;stroke-opacity:1"
       id="rect12"
       width="86.819977"
       height="51.140533"
       x="-88.069977"
       y="1.25"
       ry="21.024311"
       transform="scale(-1,1)" /></marker><marker
     markerWidth="53.81437503"
     markerHeight="89.35495758"
     refX="26.907189"
     refY="44.677482"
     orient="auto"
     id="marker13"
     viewBox="0 0 53.81437856 89.35496344"
     preserveAspectRatio="xMidYMid"><rect
       style="fill:#f1f0e8;fill-opacity:1;stroke:#4e1c00;stroke-width:2.5;stroke-linejoin:round;stroke-dasharray:none;stroke-opacity:1"
       id="rect13"
       width="86.819977"
       height="51.140533"
       x="1.3716716"
       y="-52.303711"
       ry="21.024311"
       transform="rotate(89.777446)" /></marker><clipPath
     clipPathUnits="userSpaceOnUse"
     id="clipPath6"><circle
       style="clip-rule:evenodd;fill:#2e2c2b;fill-opacity:1;fill-rule:evenodd;stroke:#fafaf9;stroke-width:0.755;stroke-linecap:round;stroke-linejoin:round;stroke-miterlimit:1.5;stroke-opacity:1"
       id="circle6"
       cx="578.125"
       cy="310.9375"
       r="226.5625" /></clipPath><linearGradient
     inkscape:collect="always"
     xlink:href="#linearGradient24"
     id="linearGradient25"
     x1="351.5625"
     y1="310.9375"
     x2="665.72425"
     y2="310.9375"
     gradientUnits="userSpaceOnUse" /><clipPath
     clipPathUnits="userSpaceOnUse"
     id="clipPath6-6"><circle
       style="clip-rule:evenodd;fill:#2e2c2b;fill-opacity:1;fill-rule:evenodd;stroke:#fafaf9;stroke-width:0.755;stroke-linecap:round;stroke-linejoin:round;stroke-miterlimit:1.5;stroke-opacity:1"
       id="circle6-1"
       cx="578.125"
       cy="310.9375"
       r="226.5625" /></clipPath><linearGradient
     inkscape:collect="always"
     xlink:href="#linearGradient28"
     id="linearGradient29"
     x1="41.954"
     y1="505.10794"
     x2="664.36171"
     y2="505.10794"
     gradientUnits="userSpaceOnUse" /><linearGradient
     inkscape:collect="always"
     xlink:href="#linearGradient30"
     id="linearGradient31"
     x1="589.863"
     y1="806.63641"
     x2="1012.1144"
     y2="806.63641"
     gradientUnits="userSpaceOnUse" /></defs><sodipodi:namedview
   id="namedview4"
   pagecolor="#818181"
   bordercolor="#000000"
   borderopacity="0"
   inkscape:showpageshadow="2"
   inkscape:pageopacity="0.0"
   inkscape:pagecheckerboard="0"
   inkscape:deskcolor="#d1d1d1"
   inkscape:lockguides="false"
   inkscape:zoom="0.64"
   inkscape:cx="524.21875"
   inkscape:cy="610.15625"
   inkscape:window-width="1920"
   inkscape:window-height="1057"
   inkscape:window-x="-8"
   inkscape:window-y="-8"
   inkscape:window-maximized="1"
   inkscape:current-layer="svg4"><sodipodi:guide
     position="0,1024"
     orientation="0,1024"
     id="guide8"
     inkscape:locked="false" /><sodipodi:guide
     position="1024,1024"
     orientation="1024,0"
     id="guide9"
     inkscape:locked="false" /><sodipodi:guide
     position="1024,0"
     orientation="0,-1024"
     id="guide10"
     inkscape:locked="false" /><sodipodi:guide
     position="0,0"
     orientation="-1024,0"
     id="guide11"
     inkscape:locked="false" /></sodipodi:namedview>
    <path
   d="M 80.857,136.863 41.954,75.33 c 84.128,-19.568 238.985,-20.538 327.329,26.938 164.767,95.877 234.718,236.534 282.853,411.916 12.959,47.216 15.084,121.134 8.878,165.9 -15.353,110.738 -48.398,134.503 -96.337,211.629 -138.619,21.507 -382.885,72.583 -494.144,50.311 141.46,-125.841 251.924,-309.555 213.312,-411.376 0,0 -34.096,-100.668 -202.988,-393.785 z"
   style="fill-rule:evenodd;clip-rule:evenodd;stroke-linecap:round;stroke-linejoin:round;stroke-miterlimit:1.5;display:inline;fill:url(#linearGradient29);fill-opacity:1"
   id="path6" /><g
   id="path7"
   clip-path="url(#clipPath6)"
   style="stroke-width:1.2;stroke-dasharray:none;stroke:none;stroke-opacity:1;fill-opacity:1;fill:url(#linearGradient25)"><path
     style="color:#000000;fill:url(#linearGradient25);fill-opacity:1;stroke:none;stroke-width:1.2;stroke-dasharray:none;stroke-opacity:1"
     d="m 41.954,75.33 c 76.06057,-16.131706 155.33355,-16.487902 231.93492,-3.80992 44.5298,7.593922 88.37478,22.495076 125.19459,49.24717 87.62321,56.69702 155.39749,140.93214 197.68371,235.90442 25.65313,57.48789 46.21497,117.475 60.20008,178.86038 13.22928,79.77225 10.44178,164.31178 -20.54169,239.84089 C 618.26389,817.47259 588.23399,852.72835 564.677,891.713 427.83821,913.01392 291.60772,942.64227 152.79483,947.37957 125.31163,947.85313 97.595978,947.27954 70.533,942.024 149.56209,870.7268 218.92765,786.51962 263.51462,689.32789 284.03947,641.67132 301.099,587.07769 285.5462,535.48031 257.58768,461.69625 220.31193,391.88302 183.82519,322.05064 128.67874,218.43717 101.1063,163.03965 41.954,75.33 Z"
     id="path14"
     sodipodi:nodetypes="ccccccccccccc" /><path
     style="color:#000000;fill:url(#linearGradient25);stroke-width:1.2;stroke-dasharray:none;stroke:none;stroke-opacity:1;fill-opacity:1"
     d="m 159.19141,61.498047 c -39.62085,0.969849 -80.059306,3.33521 -118.34697,13.377084 16.551103,29.033129 36.6448,56.562669 52.52755,86.206229 63.65675,112.50786 126.99569,225.58281 179.01979,344.0555 12.84866,27.18592 21.15398,57.14962 17.29286,87.43425 -8.12676,73.87052 -46.18385,140.45322 -87.56089,200.65258 -38.27329,54.15126 -82.91215,103.76883 -132.387402,147.90324 12.936126,7.47337 35.075572,5.58349 51.578152,7.34003 103.17379,1.64998 205.32039,-16.50775 306.84253,-32.69691 45.79162,-7.93256 91.9275,-15.29596 137.5383,-23.42437 30.84343,-49.78377 70.82008,-95.8219 84.94902,-154.06362 18.98849,-69.9329 19.35584,-144.4122 4.96527,-215.2141 C 624.55881,404.35976 577.69501,285.10833 491.0091,195.55891 451.70926,155.37745 406.73195,119.82665 356.37798,94.561157 294.6644,67.62886 225.8476,61.26739 159.19141,61.498047 Z m 0.0156,2.476562 c 71.14772,0.03399 145.15266,6.584896 209.49414,39.343751 90.39596,51.35009 164.69888,129.69499 211.6507,222.40928 33.58052,65.63225 57.76583,135.94254 74.95904,207.53173 13.77096,80.24739 11.18193,165.44327 -19.92299,241.53174 -18.05362,41.92673 -47.94875,77.03063 -71.42894,115.82412 -137.15045,21.33915 -273.70392,51.12591 -412.85463,55.56275 -26.05135,0.39552 -52.289186,-0.21904 -77.981303,-4.92212 C 152.38991,869.34374 222.01626,784.48679 266.11862,686.3948 286.25619,638.70403 302.67382,583.82064 285.85624,532.65869 254.20443,451.17908 212.62295,374.01702 171.71442,296.90563 139.35502,237.9807 107.59362,178.62738 72.443723,121.31147 62.926675,106.25843 53.409626,91.205386 43.892578,76.152344 81.711446,67.758326 120.52983,64.557716 159.20701,63.974609 Z"
     id="path15" /></g>
    <g
   transform="matrix(0.981386,0,0,0.990855,-42.7194,39.6133)"
   id="g2"
   style="display:inline;stroke:#fafaf9;stroke-opacity:1">
        <path
   d="M 306.06455,422.76799 C 383.85776,602.58847 273.8315,817.78194 114.859,902.624 232.87186,933.81641 474.86771,903.11053 571.83273,874.35567 700.55664,784.81635 731.00141,619.23251 696.461,474.784 548.48304,-64.380226 71.261413,-27.671571 99.788722,48.195566 150.01624,123.44264 274.824,348.82967 306.06455,422.76799 Z"
   style="fill:none;stroke:#fafaf9;stroke-width:40.56px;stroke-opacity:1"
   id="path2"
   sodipodi:nodetypes="cccccc" />
    </g>
    <g
   transform="matrix(0.981386,0,0,0.990855,0.780922,0.573235)"
   id="g3"
   style="display:inline;fill:url(#linearGradient31);fill-opacity:1">
        <path
   d="m 663.521,654.694 c 91.86,-11.975 82.267,51.671 291.368,18.494 68.251,-10.829 72.301,170.753 28.834,237.214 0,0 -71.137,119.228 -393.86,-11.654 27.104,-46.68 28.719,-55.861 46.623,-112.892 0.811,-2.584 4.875,-11.826 21.475,-79.649 3.438,-14.05 4.047,-31.56 5.56,-51.513 z"
   style="fill:url(#linearGradient31);fill-opacity:1"
   id="path3" />
    </g>
    <g
   transform="matrix(0.981386,0,0,0.990855,0.780922,0.573235)"
   id="g4"
   style="display:inline;stroke:#fafaf9;stroke-opacity:1">
        <path
   d="m 666.89843,648.83998 c -1.513,19.953 -5.49943,43.31702 -8.93743,57.36702 -16.6,67.823 -16.16076,67.02954 -16.97176,69.61354 -17.904,57.031 -55.54383,137.51879 -222.16829,160.86295 10.7233,1.31004 158.65504,-38.23919 219.67938,-24.45362 297.67048,67.24462 354.22915,45.3053 355.35496,0.40223 3.334,-74.035 43.92021,-245.81289 -38.96629,-239.4441 -211.13266,16.22291 -278.86105,4.66333 -289.58271,-61.22396"
   style="fill:none;stroke:#fafaf9;stroke-width:40.56px;stroke-opacity:1"
   id="path4"
   sodipodi:nodetypes="ccccscsc" />
    </g>
<circle
   style="fill:#252322;fill-opacity:1;stroke:none;stroke-width:0.755;stroke-linejoin:round;stroke-opacity:1"
   id="path9"
   cx="407.69125"
   cy="276.21359"
   r="32.040775" /><circle
   style="fill:#252322;fill-opacity:1;stroke:none;stroke-width:0.650862;stroke-linejoin:round;stroke-opacity:1"
   id="circle10"
   cx="406.5864"
   cy="363.4971"
   r="27.621359" /><circle
   style="fill:#252322;fill-opacity:1;stroke:none;stroke-width:0.546724;stroke-linejoin:round;stroke-opacity:1"
   id="circle11"
   cx="471.7728"
   cy="314.88351"
   r="23.201941" /></svg>
