<?xml version="1.0" standalone="no"?>
<!DOCTYPE svg PUBLIC "-//W3C//DTD SVG 20010904//EN"
 "http://www.w3.org/TR/2001/REC-SVG-20010904/DTD/svg10.dtd">
<svg version="1.0" xmlns="http://www.w3.org/2000/svg"
 width="1024.000000pt" height="1024.000000pt" viewBox="0 0 1024.000000 1024.000000"
 preserveAspectRatio="xMidYMid meet">
<metadata>
Created by potrace 1.14, written by Peter Selinger 2001-2017
</metadata>
<g transform="translate(0.000000,1024.000000) scale(0.100000,-0.100000)"
fill="#000000" stroke="none">
<path d="M1527 9814 c-1 -1 -81 -4 -177 -8 -96 -4 -188 -8 -205 -11 -16 -2
-61 -6 -100 -9 -321 -27 -655 -86 -731 -131 -60 -35 -99 -115 -91 -186 7 -55
-7 -32 323 -561 102 -164 124 -203 229 -403 32 -60 61 -114 65 -120 4 -5 36
-64 70 -130 35 -66 74 -140 88 -165 24 -44 60 -111 164 -310 28 -52 65 -122
83 -155 32 -59 82 -155 220 -420 37 -71 89 -170 115 -220 395 -749 1003 -1991
1060 -2167 38 -117 44 -312 14 -498 -20 -125 -90 -384 -140 -515 -4 -11 -8
-22 -9 -25 -1 -3 -5 -14 -10 -25 -4 -11 -28 -69 -52 -130 -119 -294 -353 -726
-576 -1060 -140 -209 -405 -567 -513 -691 -11 -12 -37 -43 -59 -70 -22 -26
-44 -52 -50 -58 -5 -6 -41 -47 -80 -91 -124 -143 -336 -360 -541 -555 -84 -79
-102 -103 -113 -141 -16 -56 -11 -101 17 -155 35 -69 82 -93 232 -117 14 -3
43 -8 65 -11 22 -4 60 -8 85 -11 25 -2 77 -6 115 -10 165 -15 551 -20 790 -10
145 6 320 15 400 21 143 10 201 15 255 19 222 20 332 31 410 39 25 3 72 8 105
11 33 3 71 8 85 10 14 2 52 7 85 10 33 3 76 7 95 10 40 5 94 12 165 20 28 4
61 8 75 10 14 2 50 7 80 10 30 3 66 8 80 10 37 6 100 14 145 19 22 3 105 15
185 26 80 11 165 23 190 26 25 3 52 7 60 9 8 2 40 7 70 10 30 3 62 8 70 10 8
2 35 7 60 10 25 3 86 12 135 20 50 8 108 16 130 20 23 3 51 7 64 10 12 2 57 9
99 15 119 17 123 18 192 29 36 6 76 13 90 15 14 2 48 8 75 12 28 4 55 8 60 9
6 1 35 6 65 10 30 4 63 8 73 10 10 2 50 9 88 15 l70 12 212 -77 c117 -42 221
-81 232 -86 47 -20 426 -142 615 -198 205 -61 236 -70 405 -115 173 -46 487
-114 605 -131 19 -3 55 -10 80 -15 40 -8 205 -30 330 -44 276 -30 644 -27 850
8 254 44 385 88 552 184 97 56 110 65 198 152 77 75 120 135 161 226 36 80 46
126 54 274 4 63 9 123 11 133 1 10 6 53 9 95 3 42 8 93 10 112 11 87 25 218
30 275 9 106 16 182 20 205 3 14 7 68 11 120 3 52 7 105 9 116 15 97 22 496
10 659 -30 449 -167 692 -427 761 -51 13 -180 13 -258 -1 -88 -15 -149 -24
-200 -30 -30 -4 -66 -8 -80 -10 -14 -2 -54 -7 -90 -11 -36 -3 -78 -8 -95 -10
-129 -14 -265 -19 -480 -19 -283 0 -396 10 -600 50 -60 12 -214 58 -390 115
-168 55 -241 77 -290 86 -11 2 -31 6 -45 9 -14 3 -36 7 -49 10 -27 5 -184 18
-221 18 l-25 1 -1 155 c-1 137 -9 325 -19 431 -2 19 -6 65 -10 102 -3 37 -7
75 -9 85 -2 10 -7 43 -11 73 -5 47 -20 130 -41 240 -53 272 -301 1043 -467
1450 -136 333 -355 773 -501 1005 -223 353 -431 629 -661 875 -89 95 -213 218
-296 294 -35 32 -82 75 -104 95 -107 100 -383 310 -575 438 -293 196 -464 283
-727 372 -82 28 -123 40 -243 72 -19 5 -42 11 -50 14 -25 6 -252 54 -290 60
-19 3 -42 8 -50 10 -8 2 -39 7 -69 10 -30 4 -63 9 -75 11 -12 2 -48 7 -81 10
-33 3 -67 7 -75 9 -8 2 -51 7 -95 10 -44 4 -96 9 -115 11 -96 9 -625 25 -633
18z"/>
</g>
</svg>
